<?xml version="1.0" encoding="UTF-8"?>
<svg id="Layer_1" data-name="Layer 1" xmlns="http://www.w3.org/2000/svg" viewBox="0 0 242.4 51.2">
  <defs>
    <style>
      .cls-1 {
        font-family: NeueHelveticaBQ-Bold, 'Neue Helvetica BQ';
        font-size: 45.92px;
        font-weight: 700;
      }

      .cls-1, .cls-2 {
        isolation: isolate;
      }

      .cls-3 {
        fill: blue;
      }
    </style>
  </defs>
  <g class="cls-2">
    <text class="cls-1" transform="translate(39.31 39.17)"><tspan x="0" y="0">Rythenox</tspan></text>
  </g>
  <g>
    <path class="cls-3" d="M15.86,3.93L.68,12.69c-.37.25-.62.62-.62,1.11v17.53c0,.43.25.86.62,1.11l15.18,8.76c.37.25.86.25,1.23,0l15.18-8.76c.37-.25.62-.62.62-1.11V13.8c0-.43-.25-.86-.62-1.11L17.1,3.93c-.37-.25-.86-.25-1.23,0ZM16.48,6.46l13.95,8.02v16.11l-13.95,8.02L2.53,30.59V14.48s13.95-8.02,13.95-8.02Z"/>
    <path class="cls-3" d="M31.97,12.57c-.31-.06-.68,0-.93.12l-14.57,8.39L1.91,12.69c-.62-.37-1.36-.12-1.73.43-.37.62-.12,1.36.43,1.73h0l15.8,9.13,15.8-9.13c.62-.37.8-1.11.43-1.73h0c-.19-.31-.43-.49-.74-.56h.06Z"/>
    <path class="cls-3" d="M16.48,21.33c-.68,0-1.23.56-1.23,1.23h0v17.59c0,.68.56,1.23,1.23,1.23h0c.68,0,1.23-.56,1.23-1.23v-17.59c0-.68-.56-1.23-1.23-1.23Z"/>
    <path class="cls-3" d="M4.2,14.05c-1.79-1.05-4.2.31-4.2,2.41v14.94c0,.68.56,1.23,1.23,1.23h0c.68,0,1.23-.56,1.23-1.23v-14.94c0-.25.19-.37.37-.25l12.9,7.47c.62.37,1.36.12,1.73-.43h0c.37-.62.12-1.36-.43-1.73l-12.9-7.47h.06Z"/>
    <path class="cls-3" d="M28.76,14.05l-12.9,7.47c-.62.37-.8,1.11-.49,1.73h0c.37.62,1.11.8,1.73.49h0l12.9-7.47c.25-.12.43,0,.43.25v14.94c0,.68.56,1.23,1.23,1.23s1.23-.56,1.23-1.23v-14.94c0-2.1-2.35-3.46-4.14-2.41h0v-.06Z"/>
    <path class="cls-3" d="M16.48,21.33c-.68,0-1.23.56-1.23,1.23h0v14.94c0,2.1,2.35,3.46,4.2,2.41l12.9-7.47c.62-.37.8-1.11.43-1.73s-1.11-.8-1.73-.49h0l-12.9,7.47c-.25.12-.37,0-.37-.25v-14.94c0-.68-.56-1.23-1.23-1.23h0l-.06.06Z"/>
    <path class="cls-3" d="M16.48,21.33c-.68,0-1.23.56-1.23,1.23h0v14.94c0,.25-.19.37-.37.25L1.97,30.28c-.62-.37-1.36-.12-1.73.43-.37.62-.12,1.36.43,1.73h0l12.9,7.47c1.79,1.05,4.14-.31,4.14-2.41v-14.94c0-.68-.56-1.23-1.23-1.23h0Z"/>
    <path class="cls-3" d="M13.58,5.22L2.96,11.39c-1.79,1.05-1.79,3.76,0,4.81l10.62,6.17c1.79,1.05,4.01,1.05,5.8,0l10.62-6.17c1.79-1.05,1.79-3.76,0-4.81l-10.62-6.17c-1.79-1.05-4.01-1.05-5.8,0ZM14.81,7.44c1.05-.62,2.28-.62,3.33,0l10.62,6.11c.25.12.25.31,0,.49l-10.62,6.17c-1.05.62-2.28.62-3.33,0l-10.62-6.17c-.25-.12-.25-.31,0-.49l10.62-6.11Z"/>
    <path class="cls-3" d="M31.97,12.57c-.31-.06-.68,0-.93.12l-12.9,7.47c-1.79,1.05-2.9,2.96-2.9,5.06v14.94c0,.68.56,1.23,1.23,1.23h0c.68,0,1.23-.56,1.23-1.23v-14.94c0-1.17.62-2.28,1.67-2.84l12.9-7.47c.62-.37.8-1.11.43-1.73h0c-.19-.31-.43-.49-.74-.56h0v-.06Z"/>
    <path class="cls-3" d="M1.91,12.69c-.62-.37-1.36-.12-1.73.43-.37.62-.12,1.36.43,1.73h0l12.9,7.47c1.05.62,1.67,1.67,1.67,2.84v14.94c0,.68.56,1.23,1.23,1.23h0c.68,0,1.23-.56,1.23-1.23v-14.94c0-2.1-1.11-4.01-2.9-5.06L1.85,12.63l.06.06Z"/>
    <path class="cls-3" d="M1.3,12.57c-.68,0-1.23.56-1.23,1.23H.06v14.94c0,2.1,1.11,4.01,2.9,5.06l12.9,7.47c.62.37,1.36.12,1.73-.43.37-.62.12-1.36-.43-1.73l-12.9-7.47c-1.05-.62-1.67-1.67-1.67-2.84v-14.94c0-.68-.56-1.23-1.23-1.23l-.06-.06Z"/>
    <path class="cls-3" d="M31.66,12.57c-.68,0-1.23.56-1.23,1.23v14.94c0,1.17-.62,2.28-1.67,2.84l-12.9,7.47c-.62.37-.8,1.11-.49,1.73h0c.37.62,1.11.8,1.73.43h0l12.9-7.47c1.79-1.05,2.9-2.96,2.9-5.06v-14.94c0-.68-.56-1.23-1.23-1.23h0v.06Z"/>
  </g>
</svg>